# Blender v2.76 (sub 0) OBJ File: ''
# www.blender.org
o Cube_Cube.012
v -0.568347 -0.568347 0.568347
v -0.568347 0.568347 0.568347
v -0.568347 -0.568347 -0.568347
v -0.568347 0.568347 -0.568347
v 0.568347 -0.568347 0.568347
v 0.568347 0.568347 0.568347
v 0.568347 -0.568347 -0.568347
v 0.568347 0.568347 -0.568347
vt 0.000087 0.250000
vt 0.000087 0.000087
vt 0.250000 0.000087
vt 0.000087 0.750000
vt 0.000087 0.500087
vt 0.250000 0.500087
vt 0.499913 0.250000
vt 0.499913 0.000087
vt 0.749827 0.000087
vt 0.250000 0.250000
vt 0.000087 0.250173
vt 0.250000 0.750000
vt 0.250000 0.999914
vt 0.749827 0.250000
vt 0.250000 0.250173
vt 0.000087 0.999914
vn -0.577300 0.577300 -0.577300
vn -0.577300 -0.577300 -0.577300
vn -0.577300 -0.577300 0.577300
vn 0.577300 0.577300 -0.577300
vn 0.577300 -0.577300 -0.577300
vn 0.577300 0.577300 0.577300
vn 0.577300 -0.577300 0.577300
vn -0.577300 0.577300 0.577300
s 1
f 4/1/1 3/2/2 1/3/3
f 8/4/4 7/5/5 3/6/2
f 6/7/6 5/8/7 7/9/5
f 2/10/8 1/3/3 5/8/7
f 3/6/2 7/5/5 5/11/7
f 8/4/4 4/12/1 2/13/8
f 2/10/8 4/1/1 1/3/3
f 4/12/1 8/4/4 3/6/2
f 8/14/4 6/7/6 7/9/5
f 6/7/6 2/10/8 5/8/7
f 1/15/3 3/6/2 5/11/7
f 6/16/6 8/4/4 2/13/8
