# Blender v2.76 (sub 0) OBJ File: ''
# www.blender.org
o Circle_Circle.002
v -0.000422 0.004161 0.000000
v 0.000398 0.004163 0.000000
v 0.001202 0.004006 0.000000
v 0.001961 0.003694 0.000000
v 0.002644 0.003241 0.000000
v 0.003225 0.002663 0.000000
v 0.003683 0.001982 0.000000
v 0.003999 0.001226 0.000000
v 0.004161 0.000422 0.000000
v 0.004163 -0.000398 0.000000
v 0.004006 -0.001202 0.000000
v 0.003694 -0.001961 0.000000
v 0.003241 -0.002644 0.000000
v 0.002663 -0.003225 0.000000
v 0.001982 -0.003683 0.000000
v 0.001226 -0.003999 -0.000000
v 0.000422 -0.004161 -0.000000
v -0.000398 -0.004163 -0.000000
v -0.001202 -0.004006 -0.000000
v -0.001961 -0.003694 -0.000000
v -0.002644 -0.003240 -0.000000
v -0.003225 -0.002662 -0.000000
v -0.003683 -0.001982 -0.000000
v -0.003999 -0.001226 -0.000000
v -0.004161 -0.000422 -0.000000
v -0.004163 0.000398 -0.000000
v -0.004006 0.001202 -0.000000
v -0.003694 0.001961 -0.000000
v -0.003241 0.002644 -0.000000
v -0.002663 0.003225 -0.000000
v -0.001982 0.003683 -0.000000
v -0.001226 0.003999 0.000000
v -0.000012 0.004162 0.000000
v 0.000328 0.003431 0.000000
v -0.000348 0.003429 0.000000
v 0.000800 0.004084 0.000000
v 0.000991 0.003302 0.000000
v 0.001582 0.003850 0.000000
v 0.001616 0.003045 0.000000
v 0.002302 0.003467 0.000000
v 0.002179 0.002671 0.000000
v 0.002934 0.002952 0.000000
v 0.002658 0.002195 0.000000
v 0.003454 0.002322 0.000000
v 0.003035 0.001634 0.000000
v 0.003841 0.001604 0.000000
v 0.003296 0.001010 0.000000
v 0.004080 0.000824 0.000000
v 0.003429 0.000348 0.000000
v 0.004162 0.000012 0.000000
v 0.003431 -0.000328 0.000000
v 0.004084 -0.000800 0.000000
v 0.003301 -0.000991 0.000000
v 0.003850 -0.001582 0.000000
v 0.003045 -0.001616 0.000000
v 0.003467 -0.002302 0.000000
v 0.002671 -0.002179 0.000000
v 0.002952 -0.002934 0.000000
v 0.002194 -0.002658 0.000000
v 0.002322 -0.003454 0.000000
v 0.001634 -0.003035 0.000000
v 0.001604 -0.003841 -0.000000
v 0.001010 -0.003296 -0.000000
v 0.000824 -0.004080 -0.000000
v 0.000348 -0.003429 -0.000000
v 0.000012 -0.004162 -0.000000
v -0.000328 -0.003431 -0.000000
v -0.000800 -0.004084 -0.000000
v -0.000991 -0.003301 -0.000000
v -0.001582 -0.003850 -0.000000
v -0.001616 -0.003045 -0.000000
v -0.002302 -0.003467 -0.000000
v -0.002179 -0.002671 -0.000000
v -0.002934 -0.002951 -0.000000
v -0.002658 -0.002194 -0.000000
v -0.003454 -0.002322 -0.000000
v -0.003035 -0.001634 -0.000000
v -0.003841 -0.001604 -0.000000
v -0.003296 -0.001010 -0.000000
v -0.004080 -0.000824 -0.000000
v -0.003429 -0.000348 -0.000000
v -0.004162 -0.000012 -0.000000
v -0.003431 0.000328 -0.000000
v -0.004084 0.000800 -0.000000
v -0.003301 0.000991 -0.000000
v -0.003850 0.001582 -0.000000
v -0.003045 0.001616 -0.000000
v -0.003467 0.002302 -0.000000
v -0.002671 0.002179 -0.000000
v -0.002952 0.002935 -0.000000
v -0.002194 0.002658 -0.000000
v -0.002322 0.003454 -0.000000
v -0.001634 0.003035 -0.000000
v -0.001604 0.003841 0.000000
v -0.001010 0.003296 0.000000
v -0.000824 0.004080 0.000000
vt 0.749718 0.999858
vt 0.994775 0.951112
vt 0.999576 0.999857
vt 0.744917 0.951113
vt 0.989974 0.902368
vt 0.975756 0.855496
vt 0.730698 0.904242
vt 0.961537 0.808625
vt 0.938448 0.765427
vt 0.707609 0.861044
vt 0.915358 0.722230
vt 0.884285 0.684367
vt 0.676536 0.823182
vt 0.853212 0.646505
vt 0.815349 0.615432
vt 0.638673 0.792109
vt 0.777487 0.584359
vt 0.734289 0.561269
vt 0.595476 0.769019
vt 0.691092 0.538180
vt 0.644220 0.523962
vt 0.548604 0.754801
vt 0.597349 0.509743
vt 0.548603 0.504942
vt 0.499859 0.750000
vt 0.499858 0.500141
vt 0.451114 0.504942
vt 0.451114 0.754801
vt 0.402369 0.509743
vt 0.355497 0.523962
vt 0.404242 0.769019
vt 0.308625 0.538180
vt 0.265428 0.561269
vt 0.361045 0.792109
vt 0.222231 0.584359
vt 0.184368 0.615432
vt 0.323182 0.823182
vt 0.146506 0.646505
vt 0.115432 0.684368
vt 0.292109 0.861044
vt 0.084359 0.722230
vt 0.061270 0.765428
vt 0.269019 0.904242
vt 0.038181 0.808625
vt 0.023962 0.855496
vt 0.254801 0.951113
vt 0.009744 0.902367
vt 0.004943 0.951112
vt 0.250000 0.999858
vt 0.000141 0.999857
vt 0.250000 0.000142
vt 0.004942 0.048888
vt 0.000141 0.000143
vt 0.254801 0.048887
vt 0.009744 0.097633
vt 0.023962 0.144505
vt 0.269019 0.095759
vt 0.038181 0.191376
vt 0.061270 0.234573
vt 0.292109 0.138956
vt 0.084360 0.277771
vt 0.115433 0.315633
vt 0.323182 0.176819
vt 0.146506 0.353496
vt 0.184369 0.384569
vt 0.361045 0.207892
vt 0.222231 0.415642
vt 0.265429 0.438731
vt 0.404242 0.230981
vt 0.308626 0.461820
vt 0.355498 0.476039
vt 0.451114 0.245199
vt 0.402369 0.490257
vt 0.451114 0.495058
vt 0.499859 0.250000
vt 0.499859 0.499859
vt 0.548604 0.495058
vt 0.548604 0.245199
vt 0.597349 0.490257
vt 0.644221 0.476038
vt 0.595476 0.230981
vt 0.691092 0.461820
vt 0.734289 0.438731
vt 0.638673 0.207892
vt 0.777487 0.415642
vt 0.815349 0.384569
vt 0.676536 0.176819
vt 0.853212 0.353496
vt 0.884285 0.315633
vt 0.707609 0.138956
vt 0.915358 0.277770
vt 0.938448 0.234573
vt 0.730698 0.095759
vt 0.961537 0.191376
vt 0.975756 0.144505
vt 0.744917 0.048887
vt 0.989974 0.097633
vt 0.994776 0.048888
vt 0.749718 0.000142
vt 0.999577 0.000143
vt 0.000000 0.000000
vn 0.000000 0.000000 -1.000000
s off
f 35/1/1 96/2/1 1/3/1
f 35/1/1 95/4/1 96/2/1
f 95/4/1 32/5/1 96/2/1
f 95/4/1 94/6/1 32/5/1
f 95/4/1 93/7/1 94/6/1
f 93/7/1 31/8/1 94/6/1
f 93/7/1 92/9/1 31/8/1
f 93/7/1 91/10/1 92/9/1
f 91/10/1 30/11/1 92/9/1
f 91/10/1 90/12/1 30/11/1
f 91/10/1 89/13/1 90/12/1
f 89/13/1 29/14/1 90/12/1
f 89/13/1 88/15/1 29/14/1
f 89/13/1 87/16/1 88/15/1
f 87/16/1 28/17/1 88/15/1
f 87/16/1 86/18/1 28/17/1
f 87/16/1 85/19/1 86/18/1
f 85/19/1 27/20/1 86/18/1
f 85/19/1 84/21/1 27/20/1
f 85/19/1 83/22/1 84/21/1
f 83/22/1 26/23/1 84/21/1
f 83/22/1 82/24/1 26/23/1
f 83/22/1 81/25/1 82/24/1
f 81/25/1 25/26/1 82/24/1
f 81/25/1 80/27/1 25/26/1
f 81/25/1 79/28/1 80/27/1
f 79/28/1 24/29/1 80/27/1
f 79/28/1 78/30/1 24/29/1
f 79/28/1 77/31/1 78/30/1
f 77/31/1 23/32/1 78/30/1
f 77/31/1 76/33/1 23/32/1
f 77/31/1 75/34/1 76/33/1
f 75/34/1 22/35/1 76/33/1
f 75/34/1 74/36/1 22/35/1
f 75/34/1 73/37/1 74/36/1
f 73/37/1 21/38/1 74/36/1
f 73/37/1 72/39/1 21/38/1
f 73/37/1 71/40/1 72/39/1
f 71/40/1 20/41/1 72/39/1
f 71/40/1 70/42/1 20/41/1
f 71/40/1 69/43/1 70/42/1
f 69/43/1 19/44/1 70/42/1
f 69/43/1 68/45/1 19/44/1
f 69/43/1 67/46/1 68/45/1
f 67/46/1 18/47/1 68/45/1
f 67/46/1 66/48/1 18/47/1
f 67/46/1 65/49/1 66/48/1
f 65/49/1 17/50/1 66/48/1
f 65/51/1 64/52/1 17/53/1
f 65/51/1 63/54/1 64/52/1
f 63/54/1 16/55/1 64/52/1
f 63/54/1 62/56/1 16/55/1
f 63/54/1 61/57/1 62/56/1
f 61/57/1 15/58/1 62/56/1
f 61/57/1 60/59/1 15/58/1
f 61/57/1 59/60/1 60/59/1
f 59/60/1 14/61/1 60/59/1
f 59/60/1 58/62/1 14/61/1
f 59/60/1 57/63/1 58/62/1
f 57/63/1 13/64/1 58/62/1
f 57/63/1 56/65/1 13/64/1
f 57/63/1 55/66/1 56/65/1
f 55/66/1 12/67/1 56/65/1
f 55/66/1 54/68/1 12/67/1
f 55/66/1 53/69/1 54/68/1
f 53/69/1 11/70/1 54/68/1
f 53/69/1 52/71/1 11/70/1
f 53/69/1 51/72/1 52/71/1
f 51/72/1 10/73/1 52/71/1
f 51/72/1 50/74/1 10/73/1
f 51/72/1 49/75/1 50/74/1
f 49/75/1 9/76/1 50/74/1
f 49/75/1 48/77/1 9/76/1
f 49/75/1 47/78/1 48/77/1
f 47/78/1 8/79/1 48/77/1
f 47/78/1 46/80/1 8/79/1
f 47/78/1 45/81/1 46/80/1
f 45/81/1 7/82/1 46/80/1
f 45/81/1 44/83/1 7/82/1
f 45/81/1 43/84/1 44/83/1
f 43/84/1 6/85/1 44/83/1
f 43/84/1 42/86/1 6/85/1
f 43/84/1 41/87/1 42/86/1
f 41/87/1 5/88/1 42/86/1
f 41/87/1 40/89/1 5/88/1
f 41/87/1 39/90/1 40/89/1
f 39/90/1 4/91/1 40/89/1
f 39/90/1 38/92/1 4/91/1
f 39/90/1 37/93/1 38/92/1
f 37/93/1 3/94/1 38/92/1
f 37/93/1 36/95/1 3/94/1
f 37/93/1 34/96/1 36/95/1
f 34/96/1 2/97/1 36/95/1
f 34/96/1 33/98/1 2/97/1
f 34/96/1 35/99/1 33/98/1
f 35/99/1 1/100/1 33/98/1
f 91/101/1 57/60/1 59/101/1
f 75/101/1 41/84/1 43/101/1
f 89/10/1 91/101/1 59/101/1
f 73/34/1 75/101/1 43/101/1
